<svg id="Capa_1" enable-background="new 0 0 512 512" height="512" viewBox="0 0 512 512" width="512" xmlns="http://www.w3.org/2000/svg"><g><g><g><g><g><g><g><g><g><circle cx="256" cy="256" fill="#fe6a16" r="256"/></g></g></g></g></g></g></g></g><path d="m261.237 511.947c136.363-2.736 246.563-112.096 250.645-248.125l-69.666-70.63-14.854 8.72-44.241-44.241-90.439 115.023-118.107-118.106-131.48 130.733 38.869 38.869-4.964 3.521z" fill="#e83c00"/><g><path d="m43.095 226.679h425.809v58.642h-425.809z" fill="#fff"/></g><g><path d="m43.095 256.253h425.809v29.068h-425.809z" fill="#e9edf5"/></g><g><g><path d="m96.945 335.04c-17.026 0-30.829-13.803-30.829-30.829v-96.423c0-17.026 13.803-30.829 30.829-30.829 17.026 0 30.829 13.803 30.829 30.829v96.423c0 17.027-13.803 30.829-30.829 30.829z" fill="#636978"/></g><g><path d="m153.116 366.117c-17.026 0-30.829-13.803-30.829-30.829v-158.576c0-17.026 13.803-30.829 30.829-30.829 17.026 0 30.829 13.803 30.829 30.829v158.577c0 17.026-13.802 30.828-30.829 30.828z" fill="#555a66"/></g><g><path d="m415.055 176.96c17.026 0 30.829 13.803 30.829 30.829v96.423c0 17.026-13.803 30.829-30.829 30.829-17.026 0-30.829-13.803-30.829-30.829v-96.423c0-17.027 13.803-30.829 30.829-30.829z" fill="#636978"/></g><g><path d="m358.884 145.883c17.026 0 30.829 13.803 30.829 30.829v158.577c0 17.026-13.803 30.829-30.829 30.829-17.026 0-30.829-13.803-30.829-30.829v-158.577c0-17.027 13.802-30.829 30.829-30.829z" fill="#555a66"/></g></g><g><g><path d="m66.116 256.253v47.958c0 17.026 13.803 30.829 30.829 30.829 17.026 0 30.829-13.803 30.829-30.829v-47.958z" fill="#414952"/></g><g><path d="m122.287 256.253v79.036c0 17.026 13.803 30.829 30.829 30.829 17.026 0 30.829-13.803 30.829-30.829v-79.036z" fill="#333940"/></g><g><path d="m384.226 256.253v47.958c0 17.026 13.803 30.829 30.829 30.829 17.026 0 30.829-13.803 30.829-30.829v-47.958z" fill="#414952"/></g><g><path d="m328.055 256.253v79.035c0 17.026 13.803 30.829 30.829 30.829 17.026 0 30.829-13.803 30.829-30.829v-79.035z" fill="#333940"/></g></g></g></svg>