<svg id="Capa_1" enable-background="new 0 0 510 510" height="512" viewBox="0 0 510 510" width="512" xmlns="http://www.w3.org/2000/svg"><g id="XMLID_2358_"><path id="XMLID_3354_" d="m156.692 227.057c-76.554 6.963-69.839 6.353-70.292 6.394-23.67 2.15-45.53 13-61.55 30.55-16.02 17.539-24.85 40.289-24.85 64.059v61.94l119.999 120h135.001l10-73.667-10-61.333z" fill="#4d628c"/><path id="XMLID_3356_" d="m510 327.4c0-48.776-36.935-89.666-85.55-94.53-2.12-.212 13.838 1.384-70.433-7.047l-99.017 149.177v135h135l120-120z" fill="#283d66"/><path id="XMLID_3022_" d="m0 390h120v120h-120z" fill="#ffcebf"/><path id="XMLID_3191_" d="m242.989 331.641-5.614-31.081-28.573-37.094-43.8-37.18-8.315.714c.643 1.254-7.454-14.543 62.145 121.253z" fill="#ece6f2"/><path id="XMLID_2985_" d="m390 390h120v120h-120z" fill="#ffb99c"/><path id="XMLID_3331_" d="m354.042 225.777-8.268-.823-42.172 36.658-30.95 39.489-5.813 30.491 24.494 16.886z" fill="#cfcfe6"/><path id="XMLID_3679_" d="m207.5 262.36 18.833 35.789 16.656 33.492c2.136 1.859 7.232 8.615 7.232 8.615s4.029-8.131 4.779-10.256l10-29.796-10-30.204z" fill="#ff835d"/><path id="XMLID_3680_" d="m255 270v60c1.562 3.125 4.5 8.75 4.5 8.75s6-4.812 7.339-7.158l16.627-33.141 20.111-36.792z" fill="#fb5858"/><path id="XMLID_3662_" d="m255 60 15-30-15-30h-10c-40.03 0-74.35 24.89-88.32 60l38.32 15z" fill="#4d628c"/><path id="XMLID_3663_" d="m255 90-60-15-44.87 15c-.228 4.209-.089-.301-.13 85 0 52.38 42.62 95 95 95h10l10-112z" fill="#ffcebf"/><path id="XMLID_3503_" d="m315 75-60-15v-60h10c40.12 0 74.52 25.01 88.42 60.25-2.8-.17-35.61 14.75-38.42 14.75z" fill="#283d66"/><path id="XMLID_3518_" d="m360 175c0 52.38-42.62 95-95 95h-10v-180l60-15c4.99 0 39.97 15.32 44.91 15.95.161 3.624.059.16.09 84.05z" fill="#ffb99c"/><path id="XMLID_3746_" d="m156.682 60c-3.725 9.365-6.001 19.458-6.551 30h104.869l15-15-15-15c-11.161 0-88.281 0-98.318 0z" fill="#ff835d"/><path id="XMLID_3747_" d="m353.393 60.184c-4.352-.263 3.629-.184-98.393-.184v30c83.832.007 76.752-.002 90.67-.015.17-.008 5.826-.208 14.238.963 17.054 2.375 45.438 10.393 62.437 37.105l25.311-16.106c-27.41-43.073-74.503-50.569-94.263-51.763z" fill="#fb5858"/><path id="XMLID_3353_" d="m210 375c0 24.814 20.187 45 45 45l10-45.25-10-44.75c-24.813 0-45 20.187-45 45z" fill="#ffe278"/><path id="XMLID_3488_" d="m255 330v90c5.258 0 10.305-.915 15-2.58v32.58h30v-75c0-24.813-20.186-45-45-45z" fill="#ffc178"/><path id="XMLID_3328_" d="m240 375c0 8.272 6.729 15 15 15l10-13.75-10-16.25c-8.271 0-15 6.729-15 15z" fill="#ece6f2"/><path id="XMLID_3493_" d="m255 360v30c8.272 0 15-6.728 15-15 0-8.271-6.728-15-15-15z" fill="#cfcfe6"/></g></svg>