<svg height="512pt" viewBox="0 -58 512.00023 512" width="512pt" xmlns="http://www.w3.org/2000/svg"><path d="m392.480469 0c-37.601563.0546875-71.105469 17.507812-92.941407 44.730469-3.53125 4.398437-10.238281 4.398437-13.765624 0-21.835938-27.222657-55.34375-44.6757815-92.945313-44.730469-65.625-.0898438-119.398437 53.46875-119.519531 119.09375-.226563 123.761719 166.515625 245.128906 209.390625 274.292969 6.011719 4.085937 13.902343 4.085937 19.910156 0 42.878906-29.164063 209.617187-150.53125 209.390625-274.289063-.121094-65.625-53.894531-119.1874998-119.519531-119.097656zm0 0" fill="#ff592a"/><path d="m201.441406.332031c3.019532 3.410157 8.035156 3.882813 11.605469 1.410157-3.808594-.65625-7.679687-1.125-11.605469-1.410157zm0 0" fill="#f63511"/><path d="m401.257812.3125c16.285157 20.363281 26.074219 46.117188 26.125 74.066406.226563 121.128906-159.472656 239.949219-206.46875 272.289063 26.308594 21.910156 49.300782 38.226562 61.785157 46.71875 6.011719 4.085937 13.898437 4.085937 19.910156 0 42.878906-29.164063 209.617187-150.53125 209.390625-274.289063-.117188-62.675781-49.167969-114.339844-110.742188-118.785156zm0 0" fill="#f63511"/><path d="m217.714844 203.949219c-3.394532 0-6.394532-2.222657-7.382813-5.472657l-23.453125-77.039062h-70.242187c-4.265625 0-7.722657-3.457031-7.722657-7.71875s3.457032-7.71875 7.722657-7.71875h75.964843c3.394532 0 6.394532 2.21875 7.382813 5.46875l17.734375 58.25 25.894531-85.070312c.988281-3.25 3.988281-5.46875 7.382813-5.46875 3.398437 0 6.398437 2.21875 7.386718 5.46875l11.207032 36.820312h67.890625c4.265625 0 7.722656 3.457031 7.722656 7.71875 0 4.265625-3.457031 7.722656-7.722656 7.722656h-73.609375c-3.398438 0-6.398438-2.222656-7.386719-5.472656l-5.488281-18.03125-25.894532 85.070312c-.988281 3.25-3.988281 5.472657-7.386718 5.472657zm0 0" fill="#ffc5b2"/><path d="m59.535156 246.175781h217.976563v47.777344h-217.976563zm0 0" fill="#848489"/><path d="m233.121094 246.175781v11.941407c0 8.855468-7.179688 16.035156-16.035156 16.035156h-157.550782v19.800781h217.976563v-47.777344zm0 0" fill="#545353"/><g fill="#848489"><path d="m289.640625 343.25h-17.402344c-5.523437 0-10-4.480469-10-10v-125.609375c0-5.523437 4.476563-10 10-10h17.402344c5.523437 0 10 4.476563 10 10v125.609375c0 5.519531-4.476563 10-10 10zm0 0"/><path d="m327.046875 324.789062h-17.40625c-5.523437 0-10-4.480468-10-10v-88.6875c0-5.523437 4.476563-10 10-10h17.40625c5.523437 0 10 4.476563 10 10v88.6875c0 5.519532-4.476563 10-10 10zm0 0"/><path d="m47.402344 197.640625h17.40625c5.523437 0 10 4.476563 10 10v125.609375c0 5.519531-4.476563 10-10 10h-17.40625c-5.519532 0-10-4.480469-10-10v-125.609375c0-5.523437 4.480468-10 10-10zm0 0"/><path d="m10 216.101562h17.402344c5.523437 0 10 4.476563 10 10v88.6875c0 5.519532-4.476563 10-10 10h-17.402344c-5.523438 0-10-4.480468-10-10v-88.6875c0-5.523437 4.476562-10 10-10zm0 0"/></g><path d="m289.035156 197.640625h-15.914062c5.859375 0 10.605468 4.75 10.605468 10.605469v124.398437c0 5.855469-4.746093 10.605469-10.605468 10.605469h15.914062c5.859375 0 10.605469-4.75 10.605469-10.605469v-124.398437c0-5.855469-4.746094-10.605469-10.605469-10.605469zm0 0" fill="#545353"/><path d="m326.441406 216.101562h-15.914062c5.855468 0 10.605468 4.75 10.605468 10.605469v87.476563c0 5.855468-4.75 10.605468-10.605468 10.605468h15.914062c5.855469 0 10.605469-4.75 10.605469-10.605468v-87.476563c0-5.855469-4.75-10.605469-10.605469-10.605469zm0 0" fill="#545353"/><path d="m64.203125 197.640625h-15.914063c5.855469 0 10.605469 4.75 10.605469 10.605469v124.398437c0 5.855469-4.75 10.605469-10.605469 10.605469h15.914063c5.855469 0 10.605469-4.75 10.605469-10.605469v-124.398437c0-5.855469-4.75-10.605469-10.605469-10.605469zm0 0" fill="#545353"/><path d="m26.796875 216.101562h-15.914063c5.859376 0 10.605469 4.75 10.605469 10.605469v87.476563c0 5.855468-4.746093 10.605468-10.605469 10.605468h15.914063c5.859375 0 10.605469-4.75 10.605469-10.605468v-87.476563c0-5.855469-4.746094-10.605469-10.605469-10.605469zm0 0" fill="#545353"/></svg>