<svg id="Capa_1" enable-background="new 0 0 512 512" height="512" viewBox="0 0 512 512" width="512" xmlns="http://www.w3.org/2000/svg"><g><g><g><g><g><g><circle cx="256" cy="256" fill="#64e1dc" r="256"/></g></g></g></g></g><path d="m511.976 259.499-187.024-187.025-41.806 34.592-33.146-33.146-28.347 84.026 95.082 95.082-40.832 7.887-78.414-78.415-144.466 121.467 34.125 34.125-5.607 2.797 171.089 171.089c1.122.014 2.245.022 3.37.022 140.217 0 254.104-112.729 255.976-252.501z" fill="#00c8c8"/><g><path d="m53.023 247.698h405.953v56.27h-405.953z" fill="#555a66"/></g><g><path d="m255.986 247.698h202.991v56.27h-202.991z" fill="#333940"/></g><g><g><path d="m81.541 210.775h61.541v130.115h-61.541z" fill="#707789"/></g><g><path d="m135.948 182.502h61.541v186.662h-61.541z" fill="#636978"/></g><g><path d="m368.917 210.775h61.541v130.115h-61.541z" fill="#555a66" transform="matrix(-1 0 0 -1 799.376 551.665)"/></g><g><path d="m314.511 182.502h61.541v186.662h-61.541z" fill="#414952" transform="matrix(-1 0 0 -1 690.564 551.665)"/></g></g><g><path d="m333.512 97.019c0-21.809-17.68-39.489-39.488-39.489-18.103 0-33.361 12.182-38.023 28.796-4.662-16.614-19.92-28.796-38.023-28.796-21.809 0-39.488 17.68-39.488 39.489 0 38.685 77.512 85.483 77.512 85.483s77.51-45.735 77.51-85.483z" fill="#ff73a5"/></g><g><path d="m256 182.502s77.512-45.734 77.512-85.483c0-21.809-17.68-39.489-39.488-39.489-18.103 0-33.361 12.182-38.023 28.796v96.176z" fill="#ff468c"/></g></g></svg>