<?xml version="1.0" encoding="iso-8859-1"?>
<!-- Generator: Adobe Illustrator 19.0.0, SVG Export Plug-In . SVG Version: 6.00 Build 0)  -->
<svg version="1.1" id="Capa_1" xmlns="http://www.w3.org/2000/svg" xmlns:xlink="http://www.w3.org/1999/xlink" x="0px" y="0px"
	 viewBox="0 0 512 512" style="enable-background:new 0 0 512 512;" xml:space="preserve">
<path style="fill:#FFDB2D;" d="M158.045,49.803h29.422v42.483c-12.2,8.324-28.992,12.774-43.775,12.774
	c-32.436,0-56.118-21.673-56.118-52.53C87.574,21.672,111.256,0,144.409,0c19.807,0,35.738,6.889,45.928,19.375l-21.672,19.089
	c-6.315-7.32-13.635-11.051-22.533-11.051c-14.927,0-24.399,9.616-24.399,25.117c0,15.07,9.473,25.117,23.969,25.117
	c4.162,0,8.181-0.718,12.343-2.44V49.803z"/>
<path style="fill:#FFBF00;" d="M393.568,102.763l-0.287-45.784l-21.815,36.742h-14.927l-21.815-35.164v44.206h-30.858V2.296h27.844
	l32.724,53.534l31.862-53.534h27.844l0.287,100.467H393.568z"/>
<rect x="39.452" y="201.6" style="fill:#D9F9FA;" width="433.1" height="295.4"/>
<rect x="255.98" y="201.6" style="fill:#99EFF3;" width="216.57" height="295.4"/>
<rect x="105.18" y="326.89" style="fill:#FFBF00;" width="30" height="42.667"/>
<polygon style="fill:#00D8E0;" points="256,306.852 177.799,306.852 177.799,336.852 225.879,336.852 225.879,410.526 
	255.879,410.526 255.879,336.852 256,336.852 266.667,320 "/>
<g>
	<polygon style="fill:#00ACB3;" points="472.371,306.852 346.212,306.852 346.212,336.852 394.292,336.852 394.292,410.526 
		424.292,410.526 424.292,336.852 472.371,336.852 	"/>
	<rect x="256" y="306.85" style="fill:#00ACB3;" width="47.958" height="30"/>
</g>
<polygon style="fill:#FFDB2D;" points="256,102.763 260,32 256,20.508 246.169,37.029 225.645,2.296 189.908,2.296 227.798,65.877 
	227.798,102.763 "/>
<polygon style="fill:#FFBF00;" points="266.837,2.296 256,20.508 256,102.763 261.67,102.763 261.67,66.308 299.56,2.296 "/>
<polygon style="fill:#666666;" points="256,497 266.667,450.491 256,401 196.333,401 196.333,215.44 256,215.44 266.667,156.077 
	256,102.334 6.333,102.334 6.333,215.44 27.49,215.44 27.49,497 57.49,497 57.49,215.44 166.333,215.44 166.333,497 "/>
<polygon style="fill:#333333;" points="255.978,102.334 255.978,215.44 454.333,215.44 454.333,401 255.978,401 255.978,497 
	484.333,497 484.333,215.44 505.667,215.44 505.667,102.334 "/>
<polygon style="fill:#FF9900;" points="0,482 0,512 256,512 266.667,501.333 256,482 "/>
<rect x="256" y="482" style="fill:#F57E00;" width="256" height="30"/>
<g>
</g>
<g>
</g>
<g>
</g>
<g>
</g>
<g>
</g>
<g>
</g>
<g>
</g>
<g>
</g>
<g>
</g>
<g>
</g>
<g>
</g>
<g>
</g>
<g>
</g>
<g>
</g>
<g>
</g>
</svg>
